<svg xmlns="http://www.w3.org/2000/svg" viewBox="0 0 196 75" style="position:absolute;left:0"><path fill="#005eb8" d="M8.1 69.6c-.5.2-1.4.4-2.2.4-2.1 0-3.3-1.5-3.3-3.5s1.3-3.6 3.3-3.6c.7 0 1.4.1 2.1.5l.1-1.7c-.7-.3-1.6-.4-2.2-.4-3.3 0-5.4 1.9-5.4 5.3 0 3.3 2.2 4.9 5.4 4.9.7 0 1.5-.1 2.2-.3v-1.6zm1.4 1.8h1.9V60.9H9.5v10.5zm3.9 0h1.9v-7.3h-1.9v7.3zm0-8.6h1.9V61h-1.9v1.8zm3.9 8.6h1.9v-3.6c0-.9.3-2.4 1.7-2.4 1.2 0 1.2 1.2 1.2 2.1v3.9H24v-4.6c0-1.6-.7-2.8-2.5-2.8-1 0-1.8.3-2.4 1.2v-1h-1.8v7.2zm8.7 0h1.9v-7.3H26v7.3zm0-8.6h1.9V61H26v1.8zm8.7 1.4c-.5-.2-1.1-.2-1.8-.2-2.3 0-3.5 1.7-3.5 3.8 0 2.2 1.2 3.8 3.6 3.8.8 0 1.3-.1 1.9-.2l-.1-1.6c-.3.1-.9.3-1.5.3-1.3 0-2-1-2-2.4s.7-2.3 1.9-2.3c.6 0 .9.1 1.3.3l.2-1.5zm1.8 2c.6-.5 1.4-.8 2.2-.8 1.1 0 1.6.4 1.6 1.6h-1c-.8 0-1.7.1-2.4.4-.7.4-1.2 1-1.2 2.1 0 1.4 1.3 2.2 2.5 2.2.9 0 1.8-.5 2.2-1.3 0 .2 0 .7.1 1.1h1.7c0-.6-.1-1.1-.1-1.6v-2.7c0-2.1-.9-3.1-3.1-3.1-.8 0-1.8.2-2.5.5v1.6zm1 3.1c0-1.1 1.3-1.3 2.1-1.3h.8c0 .6-.1 1.1-.4 1.5-.3.4-.7.6-1.3.6-.7.1-1.2-.1-1.2-.8zm6.5 2.1h1.9V60.9H44v10.5zm13.9-1.8c-.5.2-1.4.4-2.2.4-2.1 0-3.3-1.5-3.3-3.5s1.3-3.6 3.3-3.6c.7 0 1.4.1 2.1.5l.1-1.7c-.7-.3-1.6-.4-2.2-.4-3.3 0-5.4 1.9-5.4 5.3 0 3.3 2.2 4.9 5.4 4.9.7 0 1.5-.1 2.2-.3v-1.6zm.9-1.7c0 2.1 1.4 3.8 3.8 3.8s3.8-1.7 3.8-3.8c0-2.4-1.7-3.9-3.8-3.9-2.1 0-3.8 1.5-3.8 3.9zm2-.3c0-1.1.6-2.2 1.8-2.2 1.2 0 1.8 1 1.8 2.2 0 1.2-.4 2.5-1.8 2.5s-1.8-1.3-1.8-2.5zm7.1 3.8h1.9v-3.5c0-.9.2-2.4 1.4-2.4 1.1 0 1.1 1 1.1 1.6v4.3h1.9v-3.5c0-.9.2-2.4 1.4-2.4 1.1 0 1.1 1 1.1 1.6v4.3h1.9v-4.6c0-1.6-.5-2.8-2.3-2.8-.9 0-1.8.4-2.3 1.3-.4-.9-1.1-1.3-2.1-1.3-.7 0-1.6.3-2.2 1.2v-1h-1.8v7.2zm12.5 0h1.9v-3.5c0-.9.2-2.4 1.4-2.4 1.1 0 1.1 1 1.1 1.6v4.3h1.9v-3.5c0-.9.2-2.4 1.4-2.4 1.1 0 1.1 1 1.1 1.6v4.3h1.9v-4.6c0-1.6-.5-2.8-2.3-2.8-.9 0-1.8.4-2.3 1.3-.4-.9-1.1-1.3-2.1-1.3-.7 0-1.6.3-2.2 1.2v-1h-1.8v7.2zm12.7 0H95v-7.3h-1.9v7.3zm0-8.6H95V61h-1.9v1.8zm8.3 1.5c-.6-.1-1.2-.3-2.1-.3-1.5 0-2.9.7-2.9 2.3 0 2.6 3.3 1.7 3.3 3.1 0 .7-.8.9-1.2.9-.6 0-1.3-.2-1.9-.5l-.1 1.6c.7.2 1.4.3 2.1.3 1.5 0 3-.7 3-2.4 0-2.6-3.3-1.9-3.3-3 0-.6.6-.8 1.1-.8.7 0 1.1.1 1.7.3l.3-1.5zm6.2 0c-.6-.1-1.2-.3-2.1-.3-1.5 0-2.9.7-2.9 2.3 0 2.6 3.3 1.7 3.3 3.1 0 .7-.8.9-1.2.9-.6 0-1.3-.2-1.9-.5l-.1 1.6c.7.2 1.4.3 2.1.3 1.5 0 3-.7 3-2.4 0-2.6-3.3-1.9-3.3-3 0-.6.6-.8 1.1-.8.7 0 1.1.1 1.7.3l.3-1.5zm1.9 7.1h1.9v-7.3h-1.9v7.3zm0-8.6h1.9V61h-1.9v1.8zm3.4 5.1c0 2.1 1.4 3.8 3.8 3.8s3.8-1.7 3.8-3.8c0-2.4-1.7-3.9-3.8-3.9-2.1 0-3.8 1.5-3.8 3.9zm2-.3c0-1.1.6-2.2 1.8-2.2 1.2 0 1.8 1 1.8 2.2 0 1.2-.4 2.5-1.8 2.5s-1.8-1.3-1.8-2.5zm7.1 3.8h1.9v-3.6c0-.9.3-2.4 1.7-2.4 1.2 0 1.2 1.2 1.2 2.1v3.9h1.9v-4.6c0-1.6-.7-2.8-2.5-2.8-1 0-1.8.3-2.4 1.2v-1H122v7.2zm8.7 0h1.9v-7.3h-1.9v7.3zm0-8.6h1.9V61h-1.9v1.8zm3.9 8.6h1.9v-3.6c0-.9.3-2.4 1.7-2.4 1.2 0 1.2 1.2 1.2 2.1v3.9h1.9v-4.6c0-1.6-.7-2.8-2.5-2.8-1 0-1.8.3-2.4 1.2v-1h-1.8v7.2zm11.7-1.4c-1.1 0-1.6-1.2-1.6-2.2 0-1.1.4-2.3 1.7-2.3 1.1 0 1.6 1 1.6 2.3 0 1.1-.5 2.2-1.7 2.2zm1.7-5.8v1c-.5-.8-1.3-1.2-2.2-1.2-2.2 0-3.1 2-3.1 3.8 0 1.9.8 3.7 3 3.7 1.1 0 1.9-.5 2.3-1.2 0 1.3-.1 2.8-2.2 2.8-.6 0-1.5-.3-2.1-.6l-.2 1.6c.9.4 1.8.5 2.5.5 3 0 3.8-1.9 3.8-3.8v-6.6H148zm15.1-2.4c-.8-.3-1.8-.4-2.9-.4-3.3 0-5.4 1.9-5.4 5.3 0 3.3 2.2 4.9 5.4 4.9 1.1 0 2.1-.2 3.2-.5v-5.3h-4v1.6h2.1V70c-.3.1-.8.1-1.3.1-2.1 0-3.3-1.5-3.3-3.5s1.3-3.6 3.6-3.6c.8 0 1.8.2 2.5.5l.1-1.7zm2.3 9.6h1.9v-2.7c0-1 0-3 1.5-3 .3 0 .7.1.8.2V64c-.2-.1-.4-.1-.6-.1-1.1 0-1.9 1.1-2 1.8V64h-1.7v7.4h.1zm4.7-3.5c0 2.1 1.4 3.8 3.8 3.8s3.8-1.7 3.8-3.8c0-2.4-1.7-3.9-3.8-3.9-2.1 0-3.8 1.5-3.8 3.9zm2-.3c0-1.1.6-2.2 1.8-2.2 1.2 0 1.8 1 1.8 2.2 0 1.2-.4 2.5-1.8 2.5s-1.8-1.3-1.8-2.5zm13.8-3.4H184v3.6c0 .9-.3 2.4-1.7 2.4-1.2 0-1.2-1.2-1.2-2.1v-3.9h-1.9v4.6c0 1.6.7 2.9 2.5 2.9 1 0 1.8-.5 2.4-1.2v1h1.8v-7.3zm1.9 10.2h1.9v-3.8c.7.8 1.3 1 2.1 1 2.3 0 3.1-1.8 3.1-3.8 0-2-.8-3.8-3-3.8-1.1 0-1.8.5-2.3 1.2v-1h-1.8v10.2zm3.6-8.9c1.2 0 1.6 1.3 1.6 2.3 0 1-.4 2.4-1.6 2.4-1.3 0-1.7-1.3-1.7-2.4 0-1 .5-2.3 1.7-2.3zM75 30.4V.4H.5v30H75zM30.5 3.3l-5.1 24.1h-8.1l-5.1-16.7h-.1L8.8 27.5H2.6L7.8 3.3h8.1l5 16.7h.1l3.4-16.7h6.1zm23.1 0-5 24.1H42l2.2-10.3h-7.7l-2.2 10.3h-6.5l5-24.1h6.5l-1.9 9.2h7.7L47 3.3h6.6zm18.6.7-1.6 4.8c-1.3-.6-3-1.1-5.4-1.1-2.6 0-4.7.4-4.7 2.3 0 3.4 9.4 2.1 9.4 9.5 0 6.7-6.2 8.4-11.9 8.4-2.5 0-5.4-.6-7.5-1.2l1.5-4.9c1.3.8 3.9 1.4 6 1.4 2 0 5.2-.4 5.2-2.9 0-3.9-9.4-2.4-9.4-9.2 0-6.2 5.5-8.1 10.8-8.1 3.2-.1 6 .2 7.6 1z"/><path d="M.5 53.8h8.7v-2.3H3.5V39h-3v14.8zm12.4-6.5c.1-1.5.9-2.6 2.5-2.6s2.2 1.2 2.3 2.6h-4.8zm6.7 3.6c-1.1.6-2.2 1.1-3.6 1.1-1.8 0-3-1-3.1-2.8h7.5c0-3.8-1.1-6.6-5.2-6.6-3.4 0-5.1 2.6-5.1 5.8 0 3.6 2.1 5.7 5.7 5.7 1.5 0 2.7-.3 3.7-.9v-2.3h.1zm5-3.6c.1-1.5.9-2.6 2.5-2.6s2.2 1.2 2.3 2.6h-4.8zm6.8 3.6c-1.1.6-2.2 1.1-3.6 1.1-1.8 0-3-1-3.1-2.8h7.5c0-3.8-1.1-6.6-5.2-6.6-3.4 0-5.1 2.6-5.1 5.8 0 3.6 2.1 5.7 5.7 5.7 1.5 0 2.7-.3 3.7-.9v-2.3h.1zm5.3-2.6c0-1.5.5-3.5 2.3-3.5 1.8 0 2.5 1.9 2.5 3.5 0 1.5-.6 3.5-2.5 3.5-1.8.1-2.3-2-2.3-3.5zm5 5.5h2.8V37.9h-2.8v6.2c-.8-1-1.8-1.5-3.3-1.5-3.3 0-4.6 2.7-4.6 5.7S35 54 38.4 54c1.3 0 2.5-.4 3.3-1.5v1.3zM54 43c-.9-.2-1.8-.4-3.1-.4-2.2 0-4.3 1-4.3 3.4 0 3.9 4.9 2.5 4.9 4.6 0 1.1-1.1 1.3-1.9 1.3-1 0-1.9-.3-2.8-.7l-.2 2.3c1 .3 2.1.5 3.2.5 2.3 0 4.6-1 4.6-3.6 0-3.9-4.9-2.8-4.9-4.6 0-.9.9-1.2 1.7-1.2 1 0 1.7.2 2.5.5L54 43z" fill="#231f20"/></svg>